<?xml version="1.0" encoding="UTF-8" ?>
<!DOCTYPE svg PUBLIC "-//W3C//DTD SVG 1.1//EN" "http://www.w3.org/Graphics/SVG/1.1/DTD/svg11.dtd">
<svg width="949pt" height="346pt" viewBox="0 0 949 346" version="1.1" xmlns="http://www.w3.org/2000/svg">
<path fill="#fdfdfd" d=" M 0.00 0.00 L 949.00 0.00 L 949.00 346.00 L 445.40 346.00 C 448.35 344.33 450.88 341.53 450.91 337.97 C 451.17 330.32 450.91 322.65 451.00 315.00 C 449.33 315.00 447.66 315.00 446.00 315.00 C 445.94 322.69 446.11 330.38 445.92 338.07 C 446.15 340.35 444.38 341.92 443.01 343.47 C 443.43 344.31 443.86 345.15 444.29 346.00 L 0.00 346.00 L 0.00 0.00 Z" />
<path fill="#b16021" d=" M 834.32 0.99 C 835.79 1.02 837.26 1.06 838.75 1.10 C 839.43 2.72 840.15 4.36 840.30 6.13 C 842.60 27.09 844.87 48.06 847.23 69.01 C 847.35 70.73 847.83 72.94 846.06 74.01 C 842.54 76.28 838.10 76.70 834.03 76.27 C 831.06 75.78 827.58 74.11 827.44 70.67 C 831.27 73.53 838.95 74.54 840.70 68.94 C 839.88 47.94 838.77 26.93 837.77 5.93 C 837.93 3.61 835.81 2.33 834.32 0.99 Z" />
<path fill="#0f5970" d=" M 849.03 49.43 C 864.66 49.34 880.51 51.13 895.21 56.71 C 912.36 63.05 928.47 73.68 938.87 88.96 C 944.46 96.95 947.34 106.42 948.81 115.96 C 948.17 123.55 946.80 131.29 943.24 138.10 C 936.93 150.11 925.78 158.78 913.99 165.02 C 893.20 175.84 870.06 181.39 846.99 184.64 C 846.82 181.51 846.61 178.38 846.32 175.26 C 865.94 171.64 885.29 165.54 902.69 155.66 C 914.10 148.96 925.12 140.17 930.74 127.86 C 936.00 116.51 934.17 103.09 928.88 92.10 C 921.79 77.78 908.86 67.09 894.60 60.32 C 880.43 53.37 864.64 50.62 849.03 49.43 Z" />
<path fill="#0f5970" d=" M 867.79 57.21 C 869.92 57.24 872.04 57.60 874.07 58.31 C 891.14 63.71 907.29 73.42 918.20 87.84 C 925.32 97.27 929.52 109.24 928.04 121.12 C 925.47 117.90 925.97 112.98 923.26 109.86 C 920.69 108.82 916.78 108.74 916.52 105.17 C 914.26 91.98 906.32 80.31 895.97 72.04 C 887.65 65.36 878.07 60.13 867.79 57.21 Z" />
<path fill="#0f5970" d=" M 866.82 61.14 C 871.05 61.42 874.82 63.62 878.59 65.37 C 889.38 71.04 899.36 79.62 903.85 91.23 C 904.88 94.41 906.35 97.93 904.92 101.23 C 904.23 99.83 903.64 98.38 902.93 97.00 C 901.72 94.42 897.42 94.96 896.90 91.91 C 893.42 77.03 880.43 66.61 866.82 61.14 Z" />
<path fill="#b16021" d=" M 809.89 74.93 C 810.79 68.29 817.11 64.36 822.86 62.19 C 819.12 64.86 814.32 67.17 812.95 71.94 C 811.97 76.60 816.29 80.13 820.09 81.82 C 829.53 85.69 840.49 85.30 849.94 81.69 C 854.52 80.02 858.11 76.66 861.16 72.97 C 864.47 73.52 866.95 76.87 867.45 80.11 C 867.91 83.56 871.46 85.55 871.93 89.03 C 873.25 96.27 869.90 103.24 866.47 109.39 C 861.26 118.84 854.09 127.02 848.66 136.32 C 848.02 137.44 847.39 138.55 846.80 139.68 C 845.24 142.17 845.38 145.18 845.35 148.00 C 845.03 157.10 845.49 166.20 846.32 175.26 C 846.61 178.38 846.82 181.51 846.99 184.64 C 848.68 207.89 854.74 230.91 865.11 251.82 C 861.46 250.39 857.57 253.47 854.33 250.69 C 848.80 248.04 847.27 241.61 846.26 236.12 C 843.99 222.59 843.49 208.85 842.32 195.20 C 840.28 173.20 839.69 151.03 841.40 128.99 C 841.30 127.18 841.70 123.74 839.07 123.74 C 831.11 123.65 822.95 122.16 816.11 117.88 C 807.58 112.81 801.67 103.77 800.00 94.04 C 799.55 92.03 799.96 90.00 800.35 88.02 C 800.51 95.85 805.11 103.23 811.82 107.17 C 820.55 112.40 831.12 113.54 841.10 112.85 C 846.74 111.96 851.64 108.39 855.20 104.05 C 848.58 105.63 841.75 105.42 835.00 105.38 C 827.43 105.31 819.61 103.17 813.76 98.20 C 809.08 94.10 805.65 88.24 805.24 81.95 C 806.95 89.79 814.52 94.44 821.82 96.21 C 828.79 97.78 836.13 98.54 843.20 97.18 C 847.59 96.20 852.27 94.13 854.27 89.81 C 842.43 91.61 829.51 93.21 818.37 87.71 C 813.56 85.42 809.08 80.64 809.89 74.93 Z" />
<path fill="#0f5970" d=" M 847.88 62.41 C 856.91 61.65 866.00 64.63 873.70 69.19 C 883.85 75.30 891.78 85.94 892.56 98.01 C 893.42 107.32 890.08 116.87 883.61 123.62 C 874.30 133.88 860.39 138.89 846.80 139.68 C 847.39 138.55 848.02 137.44 848.66 136.32 C 860.76 133.65 872.36 126.92 879.45 116.58 C 884.64 109.03 886.06 99.18 883.36 90.44 C 879.03 74.81 863.81 63.63 847.88 62.41 Z" />
<path fill="#b16021" d=" M 461.19 90.19 C 471.19 88.11 481.99 96.55 481.68 106.91 C 482.33 116.20 474.24 124.77 465.01 125.03 C 456.26 125.74 447.81 118.75 446.93 110.00 C 445.49 100.96 452.16 91.70 461.19 90.19 Z" />
<path fill="#0f5970" d=" M 68.25 95.04 C 73.69 93.53 79.31 92.68 84.86 91.69 C 88.38 105.53 87.17 119.88 87.37 134.00 C 87.50 140.69 87.21 147.36 86.98 154.04 C 95.88 146.49 106.12 139.29 118.06 138.11 C 127.83 137.20 138.46 140.40 144.85 148.15 C 148.80 152.78 149.74 159.07 150.00 164.96 C 150.00 191.64 150.00 218.32 150.00 245.00 C 144.61 245.00 139.23 245.00 133.84 245.00 C 133.81 220.33 133.85 195.67 133.82 171.00 C 133.62 166.03 133.12 160.42 129.46 156.67 C 124.16 152.06 116.34 152.00 109.93 153.99 C 100.76 156.71 93.49 163.36 87.36 170.44 C 87.38 195.29 87.39 220.14 87.36 245.00 C 81.91 245.00 76.45 245.00 71.00 245.00 C 71.00 206.66 71.00 168.32 71.00 129.98 C 70.80 118.31 71.94 106.32 68.25 95.04 Z" />
<path fill="#0f5970" d=" M 295.21 95.20 C 302.23 93.54 309.96 98.89 310.54 106.16 C 311.80 113.48 305.57 121.13 298.00 120.67 C 291.06 121.19 284.60 114.87 284.96 107.93 C 284.86 101.97 289.34 96.35 295.21 95.20 Z" />
<path fill="#b16021" d=" M 685.89 139.73 C 695.48 141.19 704.95 136.95 712.09 130.78 C 716.10 136.74 720.07 142.73 723.98 148.77 C 720.93 151.30 717.77 153.84 713.98 155.12 C 708.59 157.13 702.72 156.84 697.12 156.16 C 702.81 163.40 704.52 173.33 701.84 182.11 C 699.16 191.54 691.25 198.71 682.33 202.27 C 674.99 205.54 666.88 205.69 659.01 205.80 C 655.14 207.51 650.69 209.33 648.39 213.08 C 647.17 215.37 650.02 216.72 651.90 216.73 C 664.57 217.25 677.73 215.77 689.92 220.11 C 698.86 223.51 706.37 231.10 708.58 240.55 C 710.63 250.27 709.75 261.34 703.34 269.35 C 696.23 278.87 684.38 283.31 672.99 285.01 C 660.40 286.74 647.40 286.48 635.04 283.37 C 626.66 281.24 618.48 276.81 613.48 269.57 C 608.78 262.97 607.69 254.07 610.44 246.48 C 610.83 245.31 611.30 243.63 612.95 244.01 C 621.17 243.95 629.39 244.03 637.61 243.99 C 635.98 248.82 635.52 254.79 639.13 258.86 C 643.59 263.80 650.78 264.36 657.01 264.57 C 664.29 264.28 672.78 263.82 677.76 257.67 C 682.72 252.68 681.59 242.97 675.10 239.86 C 665.96 235.72 655.73 237.60 646.05 236.71 C 638.49 236.37 630.74 236.07 623.55 233.47 C 613.27 229.29 612.30 212.38 621.79 206.79 C 625.54 204.26 629.80 202.63 634.16 201.46 C 629.72 199.51 624.96 198.02 621.28 194.73 C 614.35 189.05 611.72 179.70 611.96 171.03 C 611.87 161.39 616.01 151.74 623.48 145.56 C 634.28 136.43 649.20 134.24 662.91 135.14 C 670.75 135.68 678.18 138.42 685.89 139.73 Z" />
<path fill="#b16021" d=" M 449.99 141.80 C 459.32 139.50 468.66 137.25 478.00 135.02 C 477.99 172.34 478.02 209.66 477.99 246.99 C 477.45 256.09 476.60 265.68 471.65 273.61 C 466.09 282.08 457.33 287.94 448.06 291.69 C 444.13 286.46 440.14 281.29 436.24 276.04 C 440.23 272.40 444.27 268.58 446.66 263.64 C 450.09 256.99 449.82 249.29 449.99 242.02 C 450.01 208.61 450.00 175.20 449.99 141.80 Z" />
<path fill="#b16021" d=" M 504.31 140.05 C 513.47 137.95 522.77 136.44 532.00 134.65 C 532.09 159.78 531.80 184.91 532.16 210.03 C 532.46 215.15 532.47 221.73 537.41 224.75 C 543.61 228.63 551.57 226.09 557.01 222.04 C 559.12 220.19 561.90 218.09 561.82 214.98 C 561.81 190.21 561.88 165.44 561.78 140.67 C 570.70 138.56 579.68 136.66 588.70 134.98 C 588.57 161.64 588.67 188.31 588.64 214.97 C 588.59 222.75 590.45 230.68 595.28 236.93 C 589.03 240.50 582.79 244.08 576.51 247.60 C 575.51 248.26 574.60 248.13 573.79 247.22 C 570.74 244.79 568.66 241.41 566.85 238.01 C 559.54 244.58 549.75 247.84 540.01 248.02 C 531.45 248.27 522.60 246.43 515.42 241.59 C 511.24 238.74 507.71 234.69 506.23 229.77 C 503.96 222.40 504.39 214.59 504.36 206.97 C 504.32 184.67 504.43 162.36 504.31 140.05 Z" />
<path fill="#0f5970" d=" M 44.84 137.38 C 48.34 136.58 51.98 136.96 55.41 137.93 C 53.16 143.93 51.00 149.98 48.55 155.90 C 40.18 153.36 31.22 157.52 25.53 163.66 C 21.66 167.34 20.31 172.83 20.36 178.02 C 20.38 200.35 20.39 222.67 20.36 245.00 C 14.91 245.00 9.45 245.00 4.00 245.00 C 4.00 218.67 4.01 192.33 3.99 166.00 C 3.82 160.62 4.08 155.15 2.85 149.87 C 2.34 147.02 0.76 144.37 1.08 141.41 C 6.39 140.29 11.53 138.45 16.88 137.50 C 19.16 142.70 20.55 148.28 20.25 153.99 C 26.26 145.94 34.75 139.18 44.84 137.38 Z" />
<path fill="#0f5970" d=" M 207.16 138.89 C 216.09 136.17 225.89 136.28 234.75 139.25 C 246.60 143.16 255.87 153.67 258.57 165.81 C 260.67 175.50 261.05 185.48 261.00 195.36 C 239.03 195.35 217.05 195.45 195.08 195.31 C 194.82 203.56 195.10 212.32 199.30 219.67 C 203.81 227.30 212.27 232.01 220.97 232.94 C 232.11 234.65 243.89 231.18 252.19 223.50 C 254.42 226.95 256.46 230.51 258.57 234.04 C 248.69 242.99 235.20 247.24 221.99 247.04 C 210.68 246.92 199.01 243.25 190.93 235.06 C 180.37 224.68 176.53 209.43 175.99 195.06 C 175.72 183.06 176.68 170.44 182.75 159.80 C 188.19 150.37 196.58 142.15 207.16 138.89 Z" />
<path fill="#0f5970" d=" M 288.97 140.77 C 294.72 139.55 300.58 138.99 306.35 137.86 C 306.40 173.57 306.38 209.29 306.36 245.00 C 300.57 245.00 294.79 245.00 289.00 245.00 C 288.98 210.26 289.05 175.52 288.97 140.77 Z" />
<path fill="#0f5970" d=" M 337.86 142.14 C 343.28 140.79 348.62 139.18 354.01 137.75 C 356.48 142.73 357.79 148.22 357.73 153.78 C 365.04 147.20 373.19 140.84 383.07 138.85 C 393.03 136.46 404.44 138.88 411.73 146.33 C 416.43 150.92 418.70 157.52 419.00 163.98 C 419.00 190.98 419.00 217.99 419.00 245.00 C 413.43 244.96 407.87 245.09 402.31 244.92 C 402.45 219.94 402.33 194.95 402.37 169.97 C 402.12 165.76 402.22 161.03 399.35 157.62 C 395.72 152.94 389.17 151.63 383.58 152.65 C 373.87 154.67 365.11 160.10 358.01 166.91 C 357.99 192.94 358.00 218.97 358.00 245.00 C 352.67 245.00 347.33 245.00 342.00 245.00 C 341.91 216.35 342.20 187.70 341.84 159.06 C 342.00 153.17 340.52 147.37 337.86 142.14 Z" />
<path fill="#0f5970" d=" M 768.95 153.89 C 787.29 142.74 809.08 138.14 830.39 138.37 L 830.43 139.94 C 809.39 140.80 788.05 146.49 770.72 158.77 C 757.78 167.86 747.42 181.24 743.82 196.82 C 740.66 209.33 742.51 222.55 746.74 234.57 C 752.58 250.70 762.44 265.11 773.93 277.74 C 770.06 276.96 766.08 275.59 762.14 276.62 C 760.44 276.86 758.16 277.98 757.09 276.02 C 746.90 262.46 739.90 246.53 736.53 229.92 C 734.21 217.47 733.38 204.31 737.35 192.10 C 742.49 175.89 754.56 162.58 768.95 153.89 Z" />
<path fill="#fdfdfd" d=" M 202.11 158.01 C 211.50 145.51 234.51 148.05 240.33 162.76 C 243.00 169.14 243.26 176.18 243.63 183.00 C 227.41 183.00 211.19 183.00 194.97 183.00 C 195.33 174.31 196.78 165.15 202.11 158.01 Z" />
<path fill="#fdfdfd" d=" M 650.49 156.61 C 656.91 154.77 664.82 155.30 669.77 160.25 C 674.02 164.39 674.62 170.98 673.39 176.51 C 672.16 181.63 667.66 185.40 662.58 186.39 C 656.39 187.55 649.08 187.28 644.26 182.70 C 637.21 174.99 639.72 159.58 650.49 156.61 Z" />
<path fill="#0f5970" d=" M 760.19 179.14 C 765.60 171.96 772.59 166.19 779.89 161.02 C 772.16 168.05 765.01 176.03 760.93 185.78 C 755.59 198.28 753.28 213.16 759.06 225.93 C 765.29 240.30 776.06 252.08 787.14 262.90 C 795.67 271.07 804.84 278.52 814.20 285.70 C 815.79 286.69 816.46 288.42 816.72 290.21 C 813.02 289.47 809.29 292.82 805.88 290.37 C 789.81 279.44 774.80 266.57 762.96 251.07 C 755.46 241.14 749.28 229.67 748.11 217.09 C 747.17 203.50 751.80 189.80 760.19 179.14 Z" />
<path fill="#0f5970" d=" M 810.34 195.35 C 814.78 187.47 822.72 182.27 831.00 179.11 C 831.08 182.39 830.71 185.66 830.61 188.95 C 825.05 192.79 818.98 197.07 816.89 203.85 C 815.56 209.16 814.40 214.80 815.84 220.22 C 818.23 230.33 825.64 238.33 833.62 244.54 C 846.93 254.75 862.52 261.51 878.30 266.91 C 879.94 269.39 881.07 272.19 882.94 274.54 C 864.39 267.73 846.09 259.62 830.11 247.86 C 821.30 241.18 812.76 233.31 808.41 222.92 C 804.60 214.09 805.73 203.66 810.34 195.35 Z" />
<path fill="#0f5970" d=" M 768.11 194.28 C 769.60 190.04 771.18 185.75 773.75 182.03 C 769.05 191.64 768.36 202.64 769.32 213.13 C 771.93 228.24 782.37 240.55 793.72 250.20 C 807.68 261.91 823.62 271.10 840.10 278.75 C 843.71 280.78 849.59 280.65 850.88 285.30 C 851.76 287.65 852.55 290.03 853.22 292.46 C 849.10 291.39 845.47 289.12 841.63 287.38 C 824.51 279.60 807.78 270.62 792.99 258.92 C 781.87 249.98 771.43 239.08 766.82 225.28 C 763.39 215.19 764.84 204.21 768.11 194.28 Z" />
<path fill="#0f5970" d=" M 771.45 309.56 C 773.24 308.79 774.76 310.40 775.31 311.97 C 775.05 313.82 773.19 315.70 771.24 314.83 C 768.94 314.04 768.98 310.04 771.45 309.56 Z" />
<path fill="#0f5970" d=" M 779.37 309.45 C 782.84 308.55 783.87 313.76 780.85 314.98 C 777.32 316.11 775.58 310.11 779.37 309.45 Z" />
<path fill="#b16021" d=" M 446.00 315.00 C 447.66 315.00 449.33 315.00 451.00 315.00 C 450.91 322.65 451.17 330.32 450.91 337.97 C 450.88 341.53 448.35 344.33 445.40 346.00 L 444.29 346.00 C 443.86 345.15 443.43 344.31 443.01 343.47 C 444.38 341.92 446.15 340.35 445.92 338.07 C 446.11 330.38 445.94 322.69 446.00 315.00 Z" />
<path fill="#b16021" d=" M 473.80 315.00 C 475.58 315.00 477.37 314.99 479.17 314.99 C 480.97 320.98 483.14 326.88 484.48 333.00 C 486.40 327.04 488.52 321.15 490.29 315.14 C 492.03 315.04 493.78 315.00 495.54 314.96 C 492.74 323.67 489.71 332.32 486.87 341.03 C 485.32 340.99 483.78 340.95 482.25 340.89 C 479.62 332.20 476.62 323.63 473.80 315.00 Z" />
<path fill="#b16021" d=" M 530.00 315.00 C 531.66 315.00 533.33 315.00 535.00 315.00 C 535.10 321.32 534.78 327.65 535.17 333.96 C 535.52 337.86 542.44 337.87 542.86 334.04 C 543.19 327.70 542.91 321.34 543.00 315.00 C 544.66 315.00 546.33 315.00 548.00 315.00 C 547.98 321.01 548.03 327.01 548.00 333.02 C 548.06 335.61 546.99 338.51 544.49 339.65 C 541.05 341.50 536.86 341.31 533.38 339.72 C 530.93 338.54 530.01 335.60 530.00 333.06 C 529.96 327.04 530.02 321.02 530.00 315.00 Z" />
<path fill="#b16021" d=" M 557.08 315.74 C 561.09 314.06 565.38 315.65 569.16 317.20 C 568.42 318.39 567.68 319.59 566.95 320.79 C 564.72 319.82 562.38 318.71 559.89 319.23 C 557.79 319.12 556.11 322.28 558.00 323.65 C 561.34 325.49 566.02 325.11 568.41 328.55 C 571.35 332.67 568.79 339.09 563.86 340.16 C 559.53 341.90 554.92 340.50 550.79 338.91 C 551.30 337.66 551.82 336.41 552.35 335.17 C 555.39 336.34 558.71 337.57 562.00 336.59 C 564.61 335.99 564.83 331.60 562.23 330.83 C 559.06 329.43 554.69 329.55 552.80 326.18 C 550.28 322.40 552.71 316.74 557.08 315.74 Z" />
<path fill="#b16021" d=" M 573.83 315.00 C 578.56 315.00 583.30 315.00 588.04 315.00 C 587.75 316.33 587.46 317.66 587.19 319.00 C 584.34 319.00 581.49 319.00 578.64 319.00 C 578.61 321.33 578.61 323.66 578.63 326.00 C 581.08 326.00 583.54 326.00 586.00 326.00 C 585.99 327.33 585.99 328.66 586.00 329.99 C 583.50 329.97 581.00 330.00 578.52 330.20 C 578.58 332.37 578.60 334.54 578.60 336.72 C 581.78 336.83 584.97 336.84 588.17 336.82 C 588.17 338.21 588.17 339.60 588.19 341.00 C 583.40 341.00 578.61 341.00 573.83 341.00 C 573.80 332.33 573.81 323.67 573.83 315.00 Z" />
<path fill="#b16021" d=" M 591.27 315.19 C 595.70 315.09 600.53 314.24 604.70 316.17 C 609.87 319.45 608.53 328.11 602.84 330.10 C 605.18 333.63 607.29 337.31 609.37 341.00 C 607.51 341.00 605.66 341.01 603.81 341.04 C 601.16 337.38 599.86 332.73 596.35 329.74 C 596.10 333.51 596.19 337.28 596.18 341.05 C 594.54 340.99 592.92 340.95 591.30 340.88 C 591.42 332.31 591.48 323.75 591.27 315.19 Z" />
<path fill="#b16021" d=" M 631.05 315.61 C 635.01 314.13 639.35 315.52 642.72 317.76 C 641.88 318.76 641.04 319.75 640.21 320.75 C 637.70 319.23 634.42 318.17 631.66 319.68 C 628.94 321.47 628.67 325.06 628.56 328.02 C 628.64 330.98 628.58 334.71 631.36 336.55 C 633.36 337.61 635.66 337.41 637.79 336.90 C 637.80 334.96 637.83 333.02 637.87 331.08 C 636.53 331.04 635.19 331.00 633.86 330.97 C 633.67 329.64 633.50 328.31 633.33 326.99 C 636.55 327.00 639.77 327.00 643.00 327.00 C 642.99 330.96 643.03 334.93 642.95 338.90 C 638.20 340.82 632.56 342.01 627.90 339.19 C 623.18 335.90 622.20 329.29 623.59 324.04 C 624.30 320.14 627.15 316.63 631.05 315.61 Z" />
<path fill="#b16021" d=" M 646.29 315.13 C 650.35 315.05 654.55 314.52 658.53 315.65 C 664.87 317.62 664.26 329.13 657.36 329.59 C 660.03 333.17 662.15 337.12 664.36 341.00 C 662.50 341.00 660.65 341.01 658.81 341.04 C 656.14 337.40 654.90 332.68 651.32 329.77 C 651.11 333.53 651.19 337.29 651.18 341.05 C 649.54 340.99 647.91 340.95 646.30 340.87 C 646.44 332.29 646.44 323.71 646.29 315.13 Z" />
<path fill="#b16021" d=" M 672.42 315.66 C 676.03 314.36 680.35 315.26 683.16 317.89 C 686.50 321.28 687.02 326.45 686.41 330.96 C 686.00 334.97 683.55 339.08 679.57 340.36 C 674.58 342.13 668.16 339.95 666.32 334.71 C 663.68 328.22 664.83 318.13 672.42 315.66 Z" />
<path fill="#b16021" d=" M 690.00 315.00 C 691.66 315.00 693.32 315.00 695.00 315.00 C 695.10 321.33 694.78 327.68 695.17 334.00 C 695.59 337.88 702.52 337.86 702.87 333.98 C 703.18 327.66 702.91 321.32 703.00 315.00 C 704.66 315.00 706.32 315.00 708.00 315.00 C 707.97 321.01 708.03 327.02 708.00 333.03 C 707.99 335.17 707.39 337.51 705.65 338.90 C 702.11 341.53 697.19 341.52 693.31 339.68 C 690.91 338.49 690.02 335.58 690.00 333.08 C 689.96 327.05 690.02 321.02 690.00 315.00 Z" />
<path fill="#b16021" d=" M 712.31 315.10 C 716.84 315.01 721.59 314.55 725.94 316.13 C 730.86 318.45 731.06 325.86 727.69 329.59 C 725.02 332.48 720.70 331.93 717.15 332.06 C 717.19 335.05 717.19 338.05 717.17 341.04 C 715.54 340.99 713.92 340.95 712.31 340.89 C 712.43 332.30 712.42 323.69 712.31 315.10 Z" />
<path fill="#0f5970" d=" M 794.01 315.77 C 798.04 314.07 802.36 315.63 806.15 317.22 C 805.21 318.20 805.01 320.52 803.40 320.45 C 801.05 319.58 798.54 318.61 796.03 319.40 C 794.28 319.87 793.35 322.82 795.16 323.75 C 798.15 325.29 801.92 325.18 804.52 327.53 C 808.12 330.85 806.89 337.53 802.46 339.51 C 797.78 342.01 792.39 340.81 787.76 338.89 C 788.29 337.65 788.84 336.40 789.39 335.17 C 792.41 336.38 795.70 337.56 798.98 336.60 C 801.60 336.06 801.82 331.59 799.25 330.81 C 796.06 329.44 791.68 329.54 789.79 326.15 C 787.30 322.40 789.71 316.81 794.01 315.77 Z" />
<path fill="#0f5970" d=" M 815.06 315.75 C 819.09 314.07 823.38 315.64 827.16 317.22 C 826.51 318.30 825.89 319.40 825.18 320.44 C 822.71 320.26 820.42 318.54 817.84 319.23 C 815.86 319.24 814.50 321.65 815.56 323.34 C 818.87 325.59 823.85 324.93 826.35 328.49 C 829.35 332.57 826.84 339.03 821.91 340.14 C 817.56 341.91 812.93 340.49 808.78 338.90 C 809.29 337.66 809.82 336.42 810.35 335.18 C 813.39 336.34 816.69 337.56 819.97 336.60 C 822.61 336.08 822.81 331.53 820.21 330.80 C 817.02 329.44 812.68 329.52 810.79 326.15 C 808.29 322.38 810.73 316.77 815.06 315.75 Z" />
<path fill="#0f5970" d=" M 831.83 315.00 C 836.57 315.00 841.31 315.00 846.05 315.00 C 845.74 316.33 845.45 317.66 845.18 319.00 C 842.32 319.00 839.46 319.00 836.61 319.00 C 836.60 321.33 836.60 323.66 836.61 326.00 C 839.07 326.00 841.53 326.00 844.00 326.00 C 843.99 327.33 843.99 328.66 844.00 330.00 C 841.56 330.00 839.13 330.01 836.71 329.97 C 836.59 332.21 836.55 334.47 836.55 336.72 C 839.75 336.84 842.96 336.84 846.17 336.82 C 846.16 338.21 846.17 339.60 846.18 341.00 C 841.39 341.00 836.61 341.00 831.83 341.00 C 831.81 332.33 831.81 323.67 831.83 315.00 Z" />
<path fill="#0f5970" d=" M 849.83 314.97 C 851.43 314.99 853.04 315.02 854.67 315.07 C 854.58 322.33 854.54 329.60 854.69 336.86 C 857.65 336.82 860.62 336.81 863.60 336.79 C 863.38 338.19 863.17 339.59 862.97 341.00 C 858.59 340.99 854.21 341.00 849.83 341.00 C 849.81 332.32 849.81 323.64 849.83 314.97 Z" />
<path fill="#0f5970" d=" M 894.43 315.66 C 899.68 313.69 906.23 316.70 907.78 322.20 C 909.24 327.44 909.11 333.98 905.12 338.12 C 901.69 341.69 895.77 341.68 891.74 339.18 C 888.27 336.61 887.18 332.11 886.99 328.02 C 887.10 323.07 889.11 317.08 894.43 315.66 Z" />
<path fill="#0f5970" d=" M 912.29 315.16 C 916.74 315.11 921.60 314.20 925.76 316.24 C 930.84 319.50 929.53 328.19 923.81 330.03 C 926.14 333.60 928.27 337.30 930.38 341.01 C 928.56 341.01 926.76 341.08 924.97 340.94 C 921.87 337.63 921.10 332.51 917.27 329.82 C 917.12 333.56 917.19 337.30 917.17 341.05 C 915.53 340.99 913.92 340.96 912.30 340.87 C 912.44 332.30 912.47 323.73 912.29 315.16 Z" />
<path fill="#b16021" d=" M 452.62 341.02 C 455.22 332.57 458.25 324.25 460.86 315.80 C 462.58 315.81 464.31 315.73 466.03 315.95 C 469.11 324.15 471.33 332.69 474.17 341.00 C 472.41 341.00 470.66 340.99 468.90 341.00 C 468.30 338.99 467.68 336.99 467.05 335.00 C 464.48 334.98 461.92 335.00 459.36 335.12 C 458.86 337.06 458.34 338.99 457.84 340.93 C 456.10 340.97 454.35 341.00 452.62 341.02 Z" />
<path fill="#b16021" d=" M 502.40 317.18 C 503.04 314.72 506.31 316.21 508.14 315.81 C 510.90 324.18 513.42 332.63 516.17 341.00 C 514.41 340.99 512.65 340.99 510.90 341.00 C 510.30 338.99 509.68 336.99 509.06 335.00 C 506.49 334.99 503.93 335.00 501.37 335.10 C 500.86 337.05 500.34 338.99 499.83 340.94 C 498.09 340.97 496.34 341.00 494.60 341.02 C 497.09 333.04 499.93 325.17 502.40 317.18 Z" />
<path fill="#0f5970" d=" M 745.83 316.01 C 750.27 316.14 755.24 315.26 759.19 317.81 C 763.32 320.71 763.95 326.26 763.47 330.90 C 763.11 334.72 761.06 338.82 757.25 340.17 C 753.56 341.35 749.63 340.96 745.83 341.00 C 745.81 332.66 745.81 324.34 745.83 316.01 Z" />
<path fill="#0f5970" d=" M 767.00 315.82 C 768.72 315.82 770.44 315.83 772.17 315.83 C 772.23 321.89 772.11 327.95 772.20 334.01 C 772.00 338.16 780.01 338.29 779.89 334.07 C 780.14 328.00 779.93 321.93 780.00 315.85 C 781.66 315.83 783.32 315.82 785.00 315.81 C 784.95 322.22 785.08 328.62 784.97 335.03 C 783.83 343.64 768.22 343.70 767.08 335.05 C 766.86 328.64 767.07 322.23 767.00 315.82 Z" />
<path fill="#0f5970" d=" M 866.83 316.01 C 871.28 316.14 876.25 315.26 880.21 317.82 C 884.33 320.73 884.95 326.29 884.46 330.94 C 884.10 334.76 882.04 338.86 878.21 340.18 C 874.53 341.35 870.61 340.95 866.83 341.00 C 866.82 332.66 866.81 324.33 866.83 316.01 Z" />
<path fill="#0f5970" d=" M 933.32 316.09 C 937.75 315.91 942.19 316.03 946.63 316.00 C 946.48 317.33 946.35 318.66 946.23 320.00 C 943.53 319.99 940.84 320.00 938.16 320.03 C 938.16 322.00 938.16 323.98 938.16 325.95 C 940.33 325.97 942.50 326.00 944.69 326.12 C 944.66 327.38 944.65 328.65 944.65 329.93 C 942.47 330.00 940.31 330.01 938.15 330.05 C 938.19 333.71 938.18 337.37 938.17 341.04 C 936.54 341.00 934.93 340.96 933.32 340.91 C 933.43 332.64 933.44 324.36 933.32 316.09 Z" />
<path fill="#fdfdfd" d=" M 596.15 318.98 C 598.95 318.74 603.52 318.93 602.84 322.96 C 602.92 326.49 598.80 326.22 596.34 326.61 C 596.18 324.07 596.14 321.52 596.15 318.98 Z" />
<path fill="#fdfdfd" d=" M 651.16 318.96 C 653.23 319.19 656.00 318.46 657.42 320.45 C 658.03 322.08 658.13 324.36 656.67 325.58 C 654.97 326.27 653.12 326.36 651.33 326.62 C 651.18 324.07 651.14 321.51 651.16 318.96 Z" />
<path fill="#fdfdfd" d=" M 673.38 319.41 C 675.98 317.99 679.81 319.21 680.44 322.31 C 681.23 326.20 681.28 330.37 680.25 334.22 C 679.21 337.84 673.72 338.32 671.78 335.23 C 670.28 331.90 670.06 328.07 670.70 324.51 C 671.06 322.61 671.55 320.45 673.38 319.41 Z" />
<path fill="#fdfdfd" d=" M 717.14 319.04 C 718.98 319.11 720.95 318.70 722.73 319.38 C 725.36 321.22 725.42 325.87 722.72 327.70 C 720.90 328.22 718.98 327.92 717.14 327.96 C 717.19 324.98 717.19 322.01 717.14 319.04 Z" />
<path fill="#fdfdfd" d=" M 895.36 319.42 C 897.96 317.99 901.85 319.20 902.46 322.34 C 903.22 326.25 903.28 330.43 902.24 334.30 C 901.72 336.32 899.58 336.85 897.94 337.61 C 892.69 336.99 892.18 331.02 892.39 326.85 C 892.73 324.23 892.89 321.00 895.36 319.42 Z" />
<path fill="#fdfdfd" d=" M 917.15 318.98 C 919.23 319.18 922.02 318.44 923.43 320.47 C 924.07 322.13 924.08 324.30 922.69 325.60 C 920.96 326.29 919.08 326.36 917.27 326.57 C 917.18 324.04 917.15 321.50 917.15 318.98 Z" />
<path fill="#fdfdfd" d=" M 750.62 319.96 C 752.88 320.09 756.06 319.42 757.07 322.15 C 758.54 325.82 758.14 330.07 757.55 333.90 C 756.86 337.11 753.21 337.12 750.62 337.07 C 750.59 331.36 750.59 325.66 750.62 319.96 Z" />
<path fill="#fdfdfd" d=" M 871.63 319.95 C 873.84 320.13 876.99 319.39 878.02 322.06 C 879.56 325.77 879.15 330.09 878.53 333.97 C 877.79 337.13 874.19 337.10 871.62 337.07 C 871.60 331.36 871.59 325.66 871.63 319.95 Z" />
<path fill="#fdfdfd" d=" M 463.34 321.67 C 464.24 324.72 464.97 327.82 465.89 330.86 C 464.20 330.94 462.50 330.98 460.81 331.03 C 461.61 327.90 462.41 324.77 463.34 321.67 Z" />
<path fill="#fdfdfd" d=" M 502.83 331.02 C 503.62 327.87 504.32 324.69 505.53 321.68 C 506.21 324.78 506.94 327.88 507.89 330.91 C 506.20 330.95 504.51 330.99 502.83 331.02 Z" />
</svg>
