<?xml version="1.0" encoding="utf-8"?>
<!-- Generator: Adobe Illustrator 23.0.2, SVG Export Plug-In . SVG Version: 6.00 Build 0)  -->
<svg version="1.1"
	 id="svg8" xmlns:cc="http://creativecommons.org/ns#" xmlns:dc="http://purl.org/dc/elements/1.1/" xmlns:inkscape="http://www.inkscape.org/namespaces/inkscape" xmlns:rdf="http://www.w3.org/1999/02/22-rdf-syntax-ns#" xmlns:sodipodi="http://sodipodi.sourceforge.net/DTD/sodipodi-0.dtd" xmlns:svg="http://www.w3.org/2000/svg"
	 xmlns="http://www.w3.org/2000/svg" xmlns:xlink="http://www.w3.org/1999/xlink" x="0px" y="0px" viewBox="0 0 772.5 377"
	 style="enable-background:new 0 0 772.5 377;" xml:space="preserve">
<style type="text/css">
	.st0{fill:#007396;stroke:#007396;stroke-width:0.1645;}
	.st1{fill:#007396;}
	.st2{fill:#4E7896;}
	.st3{fill:none;stroke:#000000;stroke-width:0.21;}
	.st4{fill:none;stroke:#007396;stroke-width:0.2646;}
	.st5{fill:none;stroke:#007396;stroke-width:0.2631;}
	.st6{fill-rule:evenodd;clip-rule:evenodd;}
	.st7{fill-rule:evenodd;clip-rule:evenodd;fill:#FFFFFF;}
	.st8{fill:none;}
	.st9{fill:#ED2028;stroke:#000000;}
	.st10{font-family:'MyriadPro-Regular';}
	.st11{font-size:72px;}
	.st12{letter-spacing:20;}
	.st13{fill:#ED8B00;}
	.st14{font-family:'Seravek';}
	.st15{font-size:87.2797px;}
	.st16{font-family:'Seravek-Medium';}
	.st17{font-size:20.6077px;}
</style>
<sodipodi:namedview  bordercolor="#666666" borderopacity="1.0" fit-margin-bottom="0" fit-margin-left="0" fit-margin-right="0" fit-margin-top="10" id="base" inkscape:current-layer="layer2" inkscape:cx="182.69056" inkscape:cy="215.79726" inkscape:document-units="mm" inkscape:guide-bbox="true" inkscape:pageopacity="0.0" inkscape:pageshadow="2" inkscape:window-height="1385" inkscape:window-maximized="1" inkscape:window-width="2493" inkscape:window-x="2627" inkscape:window-y="27" inkscape:zoom="0.99999999" pagecolor="#ffffff" showgrid="false" showguides="true">
	</sodipodi:namedview>
<g id="layer1" transform="translate(-7.1237898,-157.9048)" inkscape:groupmode="layer" inkscape:label="Ebene 1">
	<path id="path116" inkscape:connector-curvature="0" sodipodi:nodetypes="ccccccccccccccccccccccc" class="st0" d="M225.9,532.9
		l-3.7-6.4l-2.5-57.9l-5.6-159.3c0.5-14,13.1-25.4,19.7-38.9c0.5-4.9-5.9-5.7-10.3-7.4c12.3-5.5,4.5-9-4.4-10.8
		c15.2-5.5,3.2-9.9-8.5-10.9l-1.1-27.7l-1.7-5.6l-0.2-17.4l-2.5,0l0.2,17.4l-1.6,5.6l-0.8,27.7c-13,1-23.8,7.4-8.4,11
		c-16.5,4.7-12.2,8.3-4.1,10.8c-4.2,1.8-10.2,2.6-10,6.9c6.2,13.3,19.8,26.9,20.2,39.6l-3.3,128.5l-2.5,88.5l-4.7,6.3L225.9,532.9z"
		/>
	<rect id="rect118" x="7.1" y="493.9" class="st1" width="58.9" height="41"/>
	<rect id="rect120" x="16.1" y="449.4" class="st1" width="49.9" height="85.5"/>
	<rect id="rect124" x="26.8" y="439.9" class="st1" width="29.3" height="11.3"/>
	<rect id="rect134" x="64.7" y="518.1" class="st1" width="11.3" height="16.8"/>
	<rect id="rect136" x="72.2" y="531" class="st2" width="29" height="3.9"/>
	<rect id="rect142" x="84.7" y="506.8" class="st1" width="17.9" height="28.1"/>
	<rect id="rect150" x="92.8" y="458.4" class="st1" width="50.2" height="76.5"/>
	<rect id="rect152" x="140.3" y="486.4" class="st1" width="34.6" height="48.5"/>
	<rect id="rect3857" x="72.2" y="531" class="st1" width="704.3" height="3.9"/>
	<path id="path3859" inkscape:connector-curvature="0" class="st3" d="M185.4,217.6"/>
	<rect id="rect3861" x="403.5" y="334.2" class="st1" width="3.9" height="200.7"/>
	<rect id="rect3878" x="709.2" y="478.9" class="st1" width="49.3" height="56"/>
	<rect id="rect3886" x="723.7" y="460.8" class="st1" width="55.9" height="74.1"/>
	<rect id="rect3890" x="168.5" y="505.6" class="st1" width="598.8" height="14.4"/>
	<path id="path4717" inkscape:connector-curvature="0" class="st4" d="M405.5,343.1l-299,162.5"/>
	<path id="path4721" inkscape:connector-curvature="0" class="st4" d="M405.3,400.6l-187.5,105"/>
	<path id="path4725" inkscape:connector-curvature="0" class="st4" d="M405.3,457.4l-78.2,48.2"/>
	<path id="path4753" inkscape:connector-curvature="0" class="st4" d="M405.5,343.1l299.6,162.5"/>
	<path id="path4755" inkscape:connector-curvature="0" sodipodi:nodetypes="cc" class="st5" d="M405.3,400.6l202.9,105"/>
	<path id="path4757" inkscape:connector-curvature="0" class="st4" d="M405.3,457.4l87.1,48.2"/>
</g>
<g id="layer2" transform="translate(-7.1237898,-70.904804)" inkscape:groupmode="layer" inkscape:label="Ebene 2">
	<g id="g174" transform="matrix(0.23086,0.03080329,-0.03080329,0.23086,20.228757,77.012969)">
		<path id="path111" inkscape:connector-curvature="0" class="st6" d="M247.2,157.4c23.9,50,7.8,399.2-20.2,521.7
			c-28,122.7-55.9,278.6-62.5,409.8c-2.9,55.9,5.7,78,42.2,78c64.5,0,146.3-135.9,249-132.9c102.9,3.1,135.5,155.9,183.7,154.9
			s86.9-17.8,87.4-166.5C728.2,578.2,356,218.2,247.2,157.4z"/>
		<path id="path113" inkscape:connector-curvature="0" sodipodi:nodetypes="cssssscssccccsscscc" class="st6" d="M566.3,505.1
			c22.7,38.2,72.4,11,85.3-35.8c11.4-41.6,5-140.8,3.4-162.7c-3.5-47.3-2.6-118.1-7.4-142c-7.8-38.8-11.2-44.9-13.1-70
			c-1.5-19.4,3.8-47.5,21.2-54.4c30.8-12.2,23.5,11.6,23.5,11.6s5.5-13.6,15.5-16c40.9-9.9,26,23.2,31,16.3
			c7.2-9.9,11.5-20.2,17.9-27.9c13.3-20.6,46.4-37.4,57.2-33.4c35.9,18-10.9,25-29,57.7c-2.7,6.3-16.8,37.6-16.8,37.6
			s41.5-0.1,19.7,40.6c-17.6,32.8-65.9,35.4-86.2,74.2c-19.2,36.6-11,108.8-8.6,160.9c1.4,38.7,5.7,113-18,155.3
			c-22.1,39.5-30.8,93.7-13.9,139C595.9,607.5,566.3,505.1,566.3,505.1L566.3,505.1z"/>
		<path id="path115" inkscape:connector-curvature="0" class="st6" d="M245.8,560.3c-21,144.1-94.1,161.2-97.8,221
			c-3.7,59.8,19.4,65.5,18,120.8c-1.4,55.3-50.6,77.8-56.5,107.8c-5.9,30,25.3,39.6,43.5,39.6s36.3-79.6,43.7-130.2
			c7.3-50.6-24.1-80.4-24.1-115.1s45.5-98.2,37.1-42.5C247.4,702.1,265.4,626.2,245.8,560.3L245.8,560.3z"/>
		<path id="path117" inkscape:connector-curvature="0" class="st7" d="M273.9,615.2c-15.9,78-115.3,513.3-64.7,518.8
			c50.6,5.5,122.7-134.7,240.6-133.7c118.2,1,164.7,157.2,193.5,156.1c28.8-1,47.8,10.2,50.8-165.7
			c3.1-175.9-104.3-400.6-167.8-499.6C440.3,496.6,347.6,565.6,273.9,615.2L273.9,615.2z"/>
		<g id="g146">
			<path id="path119" inkscape:connector-curvature="0" class="st8" d="M503.2,522.1c-5.5-51.7-54.2-72.1-101.1-65.7
				c-39.4,5.4-91.9,38.6-96.7,81.2c-5.4,48,32.3,92.2,80.4,94.1c42.6,1.7,88.4-18.9,107.5-58.9C501,556.6,504.1,540,503.2,522.1"/>
			<path id="path121" inkscape:connector-curvature="0" d="M525.6,520.3c-4.7-48.7-40.8-79.3-87.6-86.8
				c-45.1-7.2-94.3,14.2-125.9,45.8c-35.5,35.5-37,85-12.1,127.1c24.6,41.5,78.9,55.3,123.5,44.9C484.5,637,529.6,583.7,525.6,520.3
				"/>
			<path id="path144" inkscape:connector-curvature="0" class="st9" d="M503.2,538.4c-4.2,44.3-39.5,79.9-82,90.2
				c-45,10.9-94.7-6.4-110.8-52.7c-8.3-23.6-6.7-47.8,7.5-68.6c12-17.5,31.3-31.2,50.4-39.9c39.5-17.9,95.9-19.9,123.4,20.1
				C502,502.7,503.8,520.6,503.2,538.4"/>
		</g>
	</g>
</g>
<text transform="matrix(1 0 0 1 585.3777 124.6545)" class="st10 st11 st12">		</text>
<text transform="matrix(1 0 0 1 430.8126 100.3497)"><tspan x="0" y="0" class="st13 st14 st15">rhein</tspan><tspan x="191.4" y="0" class="st1 st16 st15">jug</tspan></text>
<text transform="matrix(1.0044 0 0 1 449.9844 143.6696)"><tspan x="0" y="0" class="st1 st14 st17">JAVA USER GROUP</tspan><tspan x="166.5" y="0" class="st13 st14 st17"> DÜSSELDORF</tspan></text>
<rect x="849.4" y="204.4" class="st8" width="18.9" height="15.9"/>
</svg>
