<svg id="svg8" xmlns="http://www.w3.org/2000/svg" viewBox="0 0 772.49 348.66"><defs><style>.cls-1,.cls-2{fill:#007396;}.cls-1,.cls-5,.cls-6{stroke:#007396;}.cls-1{stroke-width:0.16px;}.cls-3{fill:#4e7896;}.cls-4,.cls-5,.cls-6,.cls-9{fill:none;}.cls-10,.cls-4{stroke:#000;}.cls-4{stroke-width:0.21px;}.cls-5{stroke-width:0.26px;}.cls-6{stroke-width:0.26px;}.cls-7,.cls-8{fill-rule:evenodd;}.cls-8{fill:#fff;}.cls-10{fill:#ed2028;}.cls-11{fill:#ed8b00;}</style></defs><title>logo</title><g id="layer1"><path id="path116" class="cls-1" d="M218.73,375l-3.66-6.4-2.49-57.94L207,151.39c.45-14,13.11-25.42,19.75-38.94.45-4.9-5.87-5.71-10.3-7.36,12.3-5.49,4.45-9-4.42-10.83,15.24-5.54,3.15-9.9-8.47-10.92L202.4,55.61,200.7,50l-.22-17.37H198L198.16,50l-1.6,5.59-.8,27.7c-13,1-23.83,7.39-8.38,11-16.48,4.71-12.19,8.31-4.09,10.85-4.2,1.81-10.21,2.56-10,6.91,6.17,13.29,19.85,26.92,20.25,39.62l-3.34,128.51-2.49,88.51-4.72,6.3Z" transform="translate(0 -28.35)"/><rect id="rect118" class="cls-2" y="307.64" width="58.94" height="41.01"/><rect id="rect120" class="cls-2" x="9.02" y="263.14" width="49.92" height="85.52"/><rect id="rect124" class="cls-2" x="19.7" y="253.66" width="29.32" height="11.28"/><rect id="rect134" class="cls-2" x="57.53" y="331.81" width="11.32" height="16.85"/><rect id="rect136" class="cls-3" x="65.11" y="344.78" width="29.02" height="3.87"/><rect id="rect142" class="cls-2" x="77.59" y="320.58" width="17.89" height="28.08"/><rect id="rect150" class="cls-2" x="85.71" y="272.16" width="50.22" height="76.5"/><rect id="rect152" class="cls-2" x="133.22" y="300.13" width="34.58" height="48.53"/><rect id="rect3857" class="cls-2" x="65.11" y="344.78" width="704.33" height="3.87"/><path id="path3859" class="cls-4" d="M178.26,59.69" transform="translate(0 -28.35)"/><rect id="rect3861" class="cls-2" x="396.41" y="147.96" width="3.91" height="200.7"/><rect id="rect3878" class="cls-2" x="702.12" y="292.61" width="49.32" height="56.05"/><rect id="rect3886" class="cls-2" x="716.55" y="274.56" width="55.94" height="74.09"/><rect id="rect3890" class="cls-2" x="161.33" y="319.37" width="598.84" height="14.44"/><path id="path4717" class="cls-5" d="M398.39,185.18l-299,162.51" transform="translate(0 -28.35)"/><path id="path4721" class="cls-5" d="M398.2,242.68l-187.5,105" transform="translate(0 -28.35)"/><path id="path4725" class="cls-5" d="M398.2,299.46,320,347.69" transform="translate(0 -28.35)"/><path id="path4753" class="cls-5" d="M398.39,185.18,698,347.69" transform="translate(0 -28.35)"/><path id="path4755" class="cls-6" d="M398.2,242.68l202.85,105" transform="translate(0 -28.35)"/><path id="path4757" class="cls-5" d="M398.2,299.46l87.05,48.23" transform="translate(0 -28.35)"/></g><g id="layer2"><g id="g174"><path id="path111" class="cls-7" d="M65.32,50.06c4,12.28-10.5,92.4-20.73,119.81s-21.49,62.59-27,92.69c-2.39,12.82-1.09,18.17,7.35,19.3,14.89,2,38-26.88,61.57-23S113,299,124.11,300.27s20.62-1.42,25.29-35.75C163.41,162,88.56,67.45,65.32,50.06Z" transform="translate(0 -28.35)"/><path id="path113" class="cls-7" d="M128.29,140.15c4.06,9.51,16.37,4.77,20.78-5.63,3.93-9.25,5.49-32.36,5.79-37.45.66-11,3-27.34,2.67-33-.61-9.21-1.21-10.72-.87-16.57.26-4.53,2.34-10.86,6.57-11.92,7.49-1.87,5.05,3.41,5.05,3.41s1.7-3,4.08-3.21c9.73-1,5.28,6.15,6.65,4.71,2-2.06,3.27-4.32,5-5.89,3.71-4.35,11.85-7.21,14.23-6,7.72,5.27-3.28,5.44-8.47,12.42-.82,1.36-5,8.16-5,8.16s9.57,1.25,3.3,10c-5.06,7-16.3,6.15-22.19,14.48-5.55,7.86-5.88,24.78-6.94,36.89-.87,9-2.16,26.25-8.93,35.3-6.31,8.44-10,20.68-7.49,31.66-10.51-12.82-14.18-37.37-14.18-37.37Z" transform="translate(0 -28.35)"/><path id="path115" class="cls-7" d="M52.58,143c-9.29,32.62-26.69,34.33-29.38,48s2.46,15.72.43,28.45S9.55,235.88,7.26,242.62s4.62,9.92,8.81,10.48,10.84-17.25,14.1-28.71-3.08-19.31-2-27.32,13.54-21.26,9.89-8.65c10.55-12.6,17-29.57,14.54-45.4Z" transform="translate(0 -28.35)"/><path id="path117" class="cls-8" d="M57.39,156.57C51.32,174.07,15,271.51,26.48,274.35S58.94,247,86.15,250.9s33.18,41.35,39.85,42,10.71,3.83,16.84-36.69S131.1,160.5,119.5,135.7c-20-1.39-43.57,11.69-62.11,20.87Z" transform="translate(0 -28.35)"/><g id="g146"><path id="path119" class="cls-9" d="M113.18,142.14c.32-12.11-10.29-18.3-21.31-18.27-9.26,0-22.39,6.08-24.82,15.76a19.93,19.93,0,0,0,15.66,24.21c9.78,1.7,21-1.65,26.64-10.3a23.87,23.87,0,0,0,3.83-11.4" transform="translate(0 -28.35)"/><path id="path121" d="M118.42,142.41c.42-11.4-7-19.57-17.54-22.74-10.2-3.06-22.2.37-30.47,6.69-9.3,7.11-11.15,18.48-6.71,29s16.53,15.2,27.13,14.17c14.51-1.4,26.55-12.32,27.59-27.08" transform="translate(0 -28.35)"/><path id="path144" class="cls-10" d="M112.68,145.91c-2.34,10.1-11.59,17.23-21.72,18.3-10.72,1.14-21.66-4.39-24-15.57-1.18-5.71-.08-11.25,3.84-15.61,3.3-3.66,8.18-6.23,12.86-7.65,9.66-2.92,22.75-1.64,27.87,8.43,1.94,3.82,1.81,8,1.11,12.1" transform="translate(0 -28.35)"/></g></g></g><path class="cls-11" d="M460.92,64.91h-2a17.16,17.16,0,0,0-8,1.75,14.64,14.64,0,0,0-5.72,5.67v28h-7.85V58.46h7.5v8a15.2,15.2,0,0,1,4.85-6.37,13.35,13.35,0,0,1,8-2.18,10.33,10.33,0,0,1,3.23.44Z" transform="translate(0 -28.35)"/><path class="cls-11" d="M468.87,100.35V38.73h7.85V63.78a17.69,17.69,0,0,1,5.67-4.63,16.33,16.33,0,0,1,7.34-1.57,13,13,0,0,1,6.72,1.66,14,14,0,0,1,4.62,4.5,19.86,19.86,0,0,1,2.66,6.59,36.28,36.28,0,0,1,.83,7.94v22.08h-7.85V78.53a30.48,30.48,0,0,0-.53-5.89,14.54,14.54,0,0,0-1.65-4.58,8.51,8.51,0,0,0-3-3A8.63,8.63,0,0,0,487.11,64,10.56,10.56,0,0,0,481,65.79a19,19,0,0,0-4.23,3.84v30.72Z" transform="translate(0 -28.35)"/><path class="cls-11" d="M533.36,57.58a17.57,17.57,0,0,1,7,1.31,14.27,14.27,0,0,1,8.12,9,21.78,21.78,0,0,1,1,6.67,29.06,29.06,0,0,1-.87,7.07H522.19a20,20,0,0,0,.87,5.5,11.73,11.73,0,0,0,2.4,4.24,10.53,10.53,0,0,0,4.19,2.75,18,18,0,0,0,6.24,1,28.71,28.71,0,0,0,6.42-.7,35.66,35.66,0,0,0,5.54-1.75l1,5.85a28.39,28.39,0,0,1-6.5,2,39.27,39.27,0,0,1-7.64.74,22.49,22.49,0,0,1-9.12-1.7,17.74,17.74,0,0,1-6.42-4.63A19.39,19.39,0,0,1,515.43,88a27.26,27.26,0,0,1-1.27-8.46A27.54,27.54,0,0,1,515.47,71a21.14,21.14,0,0,1,3.8-7,17.63,17.63,0,0,1,6.06-4.72A18.57,18.57,0,0,1,533.36,57.58Zm-.26,5.85a9.82,9.82,0,0,0-4.45,1A10.29,10.29,0,0,0,525.33,67a12.44,12.44,0,0,0-2.18,3.88,18.12,18.12,0,0,0-1,4.67h19.73a18.13,18.13,0,0,0-.09-4.67,10,10,0,0,0-1.4-3.88,7.24,7.24,0,0,0-2.88-2.62A9.47,9.47,0,0,0,533.1,63.43Z" transform="translate(0 -28.35)"/><path class="cls-11" d="M558.41,46.06a5,5,0,0,1,1.36-3.49,5.17,5.17,0,0,1,7.24,0,5.19,5.19,0,0,1,0,7,5.14,5.14,0,0,1-7.24,0A5,5,0,0,1,558.41,46.06Zm1.05,54.29V58.46h7.86v41.89Z" transform="translate(0 -28.35)"/><path class="cls-11" d="M580.41,100.35V58.46h7.5v6.1a16.93,16.93,0,0,1,5.68-5.14,15.53,15.53,0,0,1,7.68-1.84A13,13,0,0,1,608,59.24a14,14,0,0,1,4.62,4.5,19.86,19.86,0,0,1,2.66,6.59,36.28,36.28,0,0,1,.83,7.94v22.08h-7.85V78.53a30.48,30.48,0,0,0-.53-5.89,14.3,14.3,0,0,0-1.65-4.58,8.51,8.51,0,0,0-3-3A8.63,8.63,0,0,0,598.65,64a10.56,10.56,0,0,0-6.16,1.84,19,19,0,0,0-4.23,3.84v30.72Z" transform="translate(0 -28.35)"/><path class="cls-2" d="M640.45,90.23a50.15,50.15,0,0,1-.65,8.46,32.92,32.92,0,0,1-2.14,7.33,30.54,30.54,0,0,1-3.93,6.68,49.47,49.47,0,0,1-6.11,6.5l-7.76-6.81a48,48,0,0,0,3.79-4.62,26.85,26.85,0,0,0,2.71-4.76A24.71,24.71,0,0,0,628,97.73a33.64,33.64,0,0,0,.53-6.2V57.84h12ZM627.54,45.45a6.82,6.82,0,0,1,1.92-4.89,6.58,6.58,0,0,1,5-2,6.91,6.91,0,0,1,5,11.73,6.64,6.64,0,0,1-5,2.06,6.49,6.49,0,0,1-5-2.06A6.83,6.83,0,0,1,627.54,45.45Z" transform="translate(0 -28.35)"/><path class="cls-2" d="M689.94,57.84v42.51H678.42V94.59a14.62,14.62,0,0,1-5.41,5,15.17,15.17,0,0,1-7,1.61,13.27,13.27,0,0,1-7-1.74,13.82,13.82,0,0,1-4.67-4.67A20.84,20.84,0,0,1,651.8,88a40.16,40.16,0,0,1-.79-8.07V57.84h12V80q0,5.76,1.61,8.73t5.72,3a8.3,8.3,0,0,0,4.54-1.22A11.64,11.64,0,0,0,678,87.61V57.84Z" transform="translate(0 -28.35)"/><path class="cls-2" d="M739.51,57.84v8h-6.72a11.32,11.32,0,0,1,1.49,5.84,13.21,13.21,0,0,1-1.23,5.68,13.54,13.54,0,0,1-3.49,4.58,15.93,15.93,0,0,1-5.58,3,23.92,23.92,0,0,1-7.51,1.1h-.57A5.46,5.46,0,0,1,715,86a12.23,12.23,0,0,0-.7,1.26,3.37,3.37,0,0,0-.26,1.44,2.14,2.14,0,0,0,1.31,2.1,9.86,9.86,0,0,0,3.4.78l7,.44c4.37.29,7.78,1.28,10.26,3s3.71,4.42,3.71,8.2a11.75,11.75,0,0,1-2.05,6.81,17.52,17.52,0,0,1-5.46,5,28.12,28.12,0,0,1-7.81,3.14,37.7,37.7,0,0,1-9.12,1.09,42.8,42.8,0,0,1-7.07-.57,21.7,21.7,0,0,1-6.07-1.87,11.84,11.84,0,0,1-4.23-3.36,8,8,0,0,1-1.57-5,7.3,7.3,0,0,1,1-3.8,10,10,0,0,1,2.49-2.79,13.05,13.05,0,0,1,3.49-1.92,37.62,37.62,0,0,1,4.06-1.27,8,8,0,0,1-2.88-2.4,5.82,5.82,0,0,1-1-3.53A6.36,6.36,0,0,1,704,90a9.21,9.21,0,0,1,1.39-2.18,9.57,9.57,0,0,1,1.88-1.66A13,13,0,0,1,709.31,85a14.81,14.81,0,0,1-7.89-5,13.14,13.14,0,0,1-2.75-8.34,14.28,14.28,0,0,1,1.17-5.8,13.2,13.2,0,0,1,3.45-4.63,16.71,16.71,0,0,1,5.59-3.09A23.29,23.29,0,0,1,716.47,57a26.1,26.1,0,0,1,3.36.22,21.53,21.53,0,0,1,3.1.65ZM712.72,100a22.76,22.76,0,0,0-3.45,2.36,4.61,4.61,0,0,0-1.7,3.75,4.22,4.22,0,0,0,2.31,4,13.3,13.3,0,0,0,6.33,1.27,23.33,23.33,0,0,0,4.49-.44,16.9,16.9,0,0,0,4-1.26,8.89,8.89,0,0,0,2.83-2.06,4.15,4.15,0,0,0,1.09-2.88,3,3,0,0,0-1.7-2.92,12,12,0,0,0-4.49-1Zm3.75-21.56a7.46,7.46,0,0,0,5.32-1.87,6.55,6.55,0,0,0,2-5,6.74,6.74,0,0,0-2-5.11,7.46,7.46,0,0,0-5.37-1.88,7.57,7.57,0,0,0-5.37,1.84,6.69,6.69,0,0,0-2,5.15,6.5,6.5,0,0,0,2,5.06A7.59,7.59,0,0,0,716.47,78.44Z" transform="translate(0 -28.35)"/><path class="cls-2" d="M453.49,142.22a6.56,6.56,0,0,1-.37,1.56,8,8,0,0,1-.77,1.55,10,10,0,0,1-1.27,1.6l-1.32-1.06a7.81,7.81,0,0,0,1.51-2.4,7.54,7.54,0,0,0,.43-2.62V129.94h1.91v10.6Q453.58,141.43,453.49,142.22Z" transform="translate(0 -28.35)"/><path class="cls-2" d="M468.51,143.67h-1.95l-1.26-3.32h-6.43l-1.25,3.32h-1.94l5.48-13.73H463Zm-9.07-4.84h5.3l-2.65-7.15Z" transform="translate(0 -28.35)"/><path class="cls-2" d="M477.87,129.94h1.9l-4.95,13.73h-2l-4.95-13.73h1.9l4,11.48Z" transform="translate(0 -28.35)"/><path class="cls-2" d="M492,143.67H490l-1.27-3.32h-6.43l-1.25,3.32h-1.94l5.48-13.73h1.87Zm-9.06-4.84h5.29l-2.64-7.15Z" transform="translate(0 -28.35)"/><path class="cls-2" d="M507.49,129.94h1.9v8.87a5.82,5.82,0,0,1-.35,2,4.6,4.6,0,0,1-1,1.62,4.84,4.84,0,0,1-1.68,1.09,7.16,7.16,0,0,1-4.66,0,5,5,0,0,1-1.69-1.09,4.58,4.58,0,0,1-1-1.62,5.6,5.6,0,0,1-.36-2v-8.87h1.91v8.95a3.56,3.56,0,0,0,.88,2.51,4,4,0,0,0,5.24,0,3.61,3.61,0,0,0,.88-2.51Z" transform="translate(0 -28.35)"/><path class="cls-2" d="M520.57,140.1a3.2,3.2,0,0,1-.39,1.59,3.7,3.7,0,0,1-1,1.2,5,5,0,0,1-1.53.76,6.46,6.46,0,0,1-1.9.27,10.39,10.39,0,0,1-2-.21,8.07,8.07,0,0,1-1.91-.62l.37-1.5a10.79,10.79,0,0,0,1.69.58,7.73,7.73,0,0,0,1.85.22,3.87,3.87,0,0,0,2.18-.56,1.87,1.87,0,0,0,.82-1.64,2.13,2.13,0,0,0-.23-1,2.79,2.79,0,0,0-.66-.77,4.92,4.92,0,0,0-1-.6c-.37-.18-.75-.37-1.17-.56s-.92-.45-1.35-.69a5.92,5.92,0,0,1-1.15-.82,3.75,3.75,0,0,1-.8-1.06,2.94,2.94,0,0,1-.3-1.37,3.65,3.65,0,0,1,.32-1.56,3,3,0,0,1,.9-1.14,4.19,4.19,0,0,1,1.39-.68,6.63,6.63,0,0,1,1.78-.22,8.28,8.28,0,0,1,1.93.22,7.39,7.39,0,0,1,1.65.6l-.35,1.51a6.88,6.88,0,0,0-1.51-.58,6.72,6.72,0,0,0-1.72-.23c-1.67,0-2.51.65-2.51,1.94a2.1,2.1,0,0,0,.13.75,1.85,1.85,0,0,0,.4.6,3.63,3.63,0,0,0,.75.53c.31.18.68.37,1.12.59l1.41.71a7.58,7.58,0,0,1,1.37.91,4.69,4.69,0,0,1,1,1.23A3.08,3.08,0,0,1,520.57,140.1Z" transform="translate(0 -28.35)"/><path class="cls-2" d="M523,129.94h7.68v1.55h-5.78v4.39h5.53v1.55h-5.53v4.69h5.84v1.55H523Z" transform="translate(0 -28.35)"/><path class="cls-2" d="M535.45,143.67h-1.9V129.94h3.58a8.59,8.59,0,0,1,2.08.25,5.59,5.59,0,0,1,1.68.73,3.49,3.49,0,0,1,1.14,1.22,3.33,3.33,0,0,1,.42,1.68,3.64,3.64,0,0,1-.92,2.47,5.34,5.34,0,0,1-2.58,1.53l4.86,5.85h-2.34L537,138.15h-1.53Zm5.09-9.81a2,2,0,0,0-1-1.84,3.7,3.7,0,0,0-1.1-.42,6.1,6.1,0,0,0-1.3-.13h-1.66v5.17h.95a7.7,7.7,0,0,0,1.63-.16,4.17,4.17,0,0,0,1.31-.51,2.5,2.5,0,0,0,.88-.86A2.39,2.39,0,0,0,540.54,133.86Z" transform="translate(0 -28.35)"/><path class="cls-2" d="M556.71,129.7a12.12,12.12,0,0,1,2.21.19,7.64,7.64,0,0,1,1.91.61l-.31,1.51a11.74,11.74,0,0,0-1.86-.56,9,9,0,0,0-1.93-.21,5.44,5.44,0,0,0-4,1.49,5.79,5.79,0,0,0-1.47,4.23,5.49,5.49,0,0,0,1.39,4,5.58,5.58,0,0,0,4.16,1.41,9.91,9.91,0,0,0,1.33-.09,6.76,6.76,0,0,0,1.15-.24v-4.47H561v5.53a9.15,9.15,0,0,1-2,.56,14.28,14.28,0,0,1-2.44.22,8.54,8.54,0,0,1-3-.51,6.3,6.3,0,0,1-2.28-1.42,6.14,6.14,0,0,1-1.42-2.19,8,8,0,0,1-.48-2.83,8.27,8.27,0,0,1,.51-2.95,6.4,6.4,0,0,1,1.45-2.29,6.73,6.73,0,0,1,2.32-1.5A8.63,8.63,0,0,1,556.71,129.7Z" transform="translate(0 -28.35)"/><path class="cls-2" d="M566,143.67h-1.9V129.94h3.58a8.59,8.59,0,0,1,2.08.25,5.59,5.59,0,0,1,1.68.73,3.49,3.49,0,0,1,1.14,1.22,3.33,3.33,0,0,1,.42,1.68,3.64,3.64,0,0,1-.92,2.47,5.34,5.34,0,0,1-2.58,1.53l4.86,5.85H572l-4.49-5.52H566Zm5.09-9.81a2,2,0,0,0-.28-1.1,2,2,0,0,0-.75-.74,3.6,3.6,0,0,0-1.1-.42,6.1,6.1,0,0,0-1.3-.13H566v5.17h1a7.7,7.7,0,0,0,1.63-.16,4.17,4.17,0,0,0,1.31-.51,2.5,2.5,0,0,0,.88-.86A2.3,2.3,0,0,0,571.09,133.86Z" transform="translate(0 -28.35)"/><path class="cls-2" d="M582,143.92a6.9,6.9,0,0,1-2.87-.58,6.07,6.07,0,0,1-2.12-1.55,6.8,6.8,0,0,1-1.29-2.26,8.29,8.29,0,0,1-.44-2.72,8.21,8.21,0,0,1,.44-2.72,6.85,6.85,0,0,1,1.29-2.27,6.2,6.2,0,0,1,2.12-1.55,7.54,7.54,0,0,1,5.75,0,6.25,6.25,0,0,1,2.11,1.55,6.52,6.52,0,0,1,1.29,2.27,8.21,8.21,0,0,1,.45,2.72,8.3,8.3,0,0,1-.45,2.72,6.47,6.47,0,0,1-1.29,2.26,6.12,6.12,0,0,1-2.11,1.55A6.92,6.92,0,0,1,582,143.92Zm0-1.53a4.76,4.76,0,0,0,2.09-.43,4.15,4.15,0,0,0,1.51-1.2,5.17,5.17,0,0,0,.91-1.78,7.55,7.55,0,0,0,0-4.35,5.12,5.12,0,0,0-.91-1.77,4.23,4.23,0,0,0-1.51-1.19,4.63,4.63,0,0,0-2.09-.45,4.69,4.69,0,0,0-2.09.45,4.23,4.23,0,0,0-1.51,1.19,5.3,5.3,0,0,0-.91,1.77,7.79,7.79,0,0,0,0,4.35,5.35,5.35,0,0,0,.91,1.78A4.15,4.15,0,0,0,580,142,4.82,4.82,0,0,0,582,142.39Z" transform="translate(0 -28.35)"/><path class="cls-2" d="M600.17,129.94h1.91v8.87a5.82,5.82,0,0,1-.35,2,4.6,4.6,0,0,1-1,1.62,4.88,4.88,0,0,1-1.69,1.09,7.13,7.13,0,0,1-4.65,0,5,5,0,0,1-1.69-1.09,4.58,4.58,0,0,1-1-1.62,5.6,5.6,0,0,1-.36-2v-8.87h1.91v8.95a3.56,3.56,0,0,0,.88,2.51,4,4,0,0,0,5.23,0,3.56,3.56,0,0,0,.88-2.51Z" transform="translate(0 -28.35)"/><path class="cls-2" d="M613.92,134a3.68,3.68,0,0,1-.44,1.79,4.19,4.19,0,0,1-1.21,1.35,5.73,5.73,0,0,1-1.83.85,8.25,8.25,0,0,1-2.27.3h-1v5.42h-1.9V129.94h3.33a8.53,8.53,0,0,1,2.08.25,5.37,5.37,0,0,1,1.68.75,3.51,3.51,0,0,1,1.52,3Zm-1.91,0a2.34,2.34,0,0,0-.26-1.14A2.24,2.24,0,0,0,611,132a3.29,3.29,0,0,0-1.1-.44,6.32,6.32,0,0,0-1.33-.13h-1.37v5.25h1a6,6,0,0,0,1.52-.18A3.68,3.68,0,0,0,611,136a2.61,2.61,0,0,0,.79-.87A2.53,2.53,0,0,0,612,133.94Z" transform="translate(0 -28.35)"/><path class="cls-11" d="M620.27,129.94h3.83a9.64,9.64,0,0,1,3.23.52,7.52,7.52,0,0,1,2.49,1.43,6.36,6.36,0,0,1,1.59,2.18,7,7,0,0,1,0,5.48,6.32,6.32,0,0,1-1.59,2.17,7.52,7.52,0,0,1-2.49,1.43,9.39,9.39,0,0,1-3.23.52h-3.83Zm3.83,12.2a7.34,7.34,0,0,0,2.33-.36,5.55,5.55,0,0,0,1.9-1,4.91,4.91,0,0,0,1.27-1.67,5.25,5.25,0,0,0,.46-2.26,5.31,5.31,0,0,0-.46-2.26,4.85,4.85,0,0,0-1.27-1.68,5.73,5.73,0,0,0-1.9-1,7.34,7.34,0,0,0-2.33-.36h-1.92v10.67Z" transform="translate(0 -28.35)"/><path class="cls-11" d="M643.23,129.94h1.9v8.87a5.59,5.59,0,0,1-.35,2,4.58,4.58,0,0,1-1,1.62,5,5,0,0,1-1.69,1.09,7.16,7.16,0,0,1-4.66,0,5,5,0,0,1-1.69-1.09,4.58,4.58,0,0,1-1-1.62,5.82,5.82,0,0,1-.35-2v-8.87h1.9v8.95a3.61,3.61,0,0,0,.88,2.51,4,4,0,0,0,5.24,0,3.56,3.56,0,0,0,.88-2.51Zm-4.45-2.53a1,1,0,0,1-.3.76,1.25,1.25,0,0,1-1.6,0,1.11,1.11,0,0,1,0-1.52,1.25,1.25,0,0,1,1.6,0A1,1,0,0,1,638.78,127.41Zm4.08,0a1,1,0,0,1-.3.76,1.25,1.25,0,0,1-1.6,0,1.11,1.11,0,0,1,0-1.52,1.25,1.25,0,0,1,1.6,0A1,1,0,0,1,642.86,127.41Z" transform="translate(0 -28.35)"/><path class="cls-11" d="M656.31,140.1a3.31,3.31,0,0,1-.38,1.59,3.73,3.73,0,0,1-1,1.2,4.77,4.77,0,0,1-1.53.76,6.44,6.44,0,0,1-1.89.27,10.24,10.24,0,0,1-2-.21,8,8,0,0,1-1.92-.62l.38-1.5a10.67,10.67,0,0,0,1.68.58,7.82,7.82,0,0,0,1.86.22,3.84,3.84,0,0,0,2.17-.56,1.88,1.88,0,0,0,.83-1.64,2,2,0,0,0-.24-1,2.93,2.93,0,0,0-.65-.77,5.34,5.34,0,0,0-1-.6c-.36-.18-.75-.37-1.17-.56s-.92-.45-1.35-.69a5.92,5.92,0,0,1-1.15-.82,3.75,3.75,0,0,1-.8-1.06,2.94,2.94,0,0,1-.3-1.37,3.65,3.65,0,0,1,.32-1.56,3.26,3.26,0,0,1,.9-1.14,4.19,4.19,0,0,1,1.39-.68,6.63,6.63,0,0,1,1.78-.22,8.36,8.36,0,0,1,1.94.22,7.48,7.48,0,0,1,1.64.6l-.35,1.51a6.88,6.88,0,0,0-1.51-.58,6.72,6.72,0,0,0-1.72-.23c-1.67,0-2.5.65-2.5,1.94a2.11,2.11,0,0,0,.12.75,1.85,1.85,0,0,0,.4.6,3.63,3.63,0,0,0,.75.53c.31.18.69.37,1.13.59l1.41.71a7.5,7.5,0,0,1,1.36.91,4.72,4.72,0,0,1,1,1.23A3.17,3.17,0,0,1,656.31,140.1Z" transform="translate(0 -28.35)"/><path class="cls-11" d="M666.58,140.1a3.2,3.2,0,0,1-.39,1.59,3.7,3.7,0,0,1-1,1.2,5,5,0,0,1-1.53.76,6.46,6.46,0,0,1-1.9.27,10.39,10.39,0,0,1-2-.21,8.07,8.07,0,0,1-1.91-.62l.37-1.5a10.79,10.79,0,0,0,1.69.58,7.73,7.73,0,0,0,1.85.22,3.87,3.87,0,0,0,2.18-.56,1.87,1.87,0,0,0,.82-1.64,2.13,2.13,0,0,0-.23-1,2.79,2.79,0,0,0-.66-.77,4.92,4.92,0,0,0-1-.6l-1.17-.56q-.7-.33-1.35-.69a5.92,5.92,0,0,1-1.15-.82,3.75,3.75,0,0,1-.8-1.06,2.94,2.94,0,0,1-.3-1.37,3.65,3.65,0,0,1,.32-1.56,3,3,0,0,1,.9-1.14,4.19,4.19,0,0,1,1.39-.68,6.63,6.63,0,0,1,1.78-.22,8.28,8.28,0,0,1,1.93.22,7.39,7.39,0,0,1,1.65.6l-.35,1.51a6.88,6.88,0,0,0-1.51-.58,6.72,6.72,0,0,0-1.72-.23c-1.67,0-2.51.65-2.51,1.94a2.1,2.1,0,0,0,.13.75,1.7,1.7,0,0,0,.4.6,3.63,3.63,0,0,0,.75.53c.31.18.68.37,1.12.59l1.41.71a7.58,7.58,0,0,1,1.37.91,4.69,4.69,0,0,1,1,1.23A3.08,3.08,0,0,1,666.58,140.1Z" transform="translate(0 -28.35)"/><path class="cls-11" d="M669,129.94h7.68v1.55H670.9v4.39h5.53v1.55H670.9v4.69h5.84v1.55H669Z" transform="translate(0 -28.35)"/><path class="cls-11" d="M681.46,129.94v12.18h5.75v1.55h-7.65V129.94Z" transform="translate(0 -28.35)"/><path class="cls-11" d="M689.33,129.94h3.82a9.64,9.64,0,0,1,3.23.52,7.42,7.42,0,0,1,2.49,1.43,6.23,6.23,0,0,1,1.59,2.18,7,7,0,0,1,0,5.48,6.2,6.2,0,0,1-1.59,2.17,7.42,7.42,0,0,1-2.49,1.43,9.39,9.39,0,0,1-3.23.52h-3.82Zm3.82,12.2a7.34,7.34,0,0,0,2.33-.36,5.55,5.55,0,0,0,1.9-1,4.79,4.79,0,0,0,1.27-1.67,5.25,5.25,0,0,0,.47-2.26,5.31,5.31,0,0,0-.47-2.26,4.73,4.73,0,0,0-1.27-1.68,5.73,5.73,0,0,0-1.9-1,7.34,7.34,0,0,0-2.33-.36h-1.92v10.67Z" transform="translate(0 -28.35)"/><path class="cls-11" d="M709.53,143.92a6.92,6.92,0,0,1-2.88-.58,6,6,0,0,1-2.11-1.55,6.47,6.47,0,0,1-1.29-2.26,8.3,8.3,0,0,1-.45-2.72,8.21,8.21,0,0,1,.45-2.72,6.52,6.52,0,0,1,1.29-2.27,6.16,6.16,0,0,1,2.11-1.55,7.56,7.56,0,0,1,5.76,0,6.25,6.25,0,0,1,2.11,1.55,6.85,6.85,0,0,1,1.29,2.27,8.21,8.21,0,0,1,.44,2.72,8.29,8.29,0,0,1-.44,2.72,6.8,6.8,0,0,1-1.29,2.26,6.12,6.12,0,0,1-2.11,1.55A7,7,0,0,1,709.53,143.92Zm0-1.53a4.82,4.82,0,0,0,2.09-.43,4.15,4.15,0,0,0,1.51-1.2A5.35,5.35,0,0,0,714,139a7.79,7.79,0,0,0,0-4.35,5.3,5.3,0,0,0-.91-1.77,4.23,4.23,0,0,0-1.51-1.19,4.69,4.69,0,0,0-2.09-.45,4.63,4.63,0,0,0-2.09.45,4.23,4.23,0,0,0-1.51,1.19,5.12,5.12,0,0,0-.91,1.77,7.79,7.79,0,0,0,0,4.35,5.17,5.17,0,0,0,.91,1.78,4.15,4.15,0,0,0,1.51,1.2A4.76,4.76,0,0,0,709.53,142.39Z" transform="translate(0 -28.35)"/><path class="cls-11" d="M720.75,143.67h-1.91V129.94h3.58a8.53,8.53,0,0,1,2.08.25,5.54,5.54,0,0,1,1.69.73,3.69,3.69,0,0,1,1.14,1.22,3.43,3.43,0,0,1,.41,1.68,3.59,3.59,0,0,1-.92,2.47,5.26,5.26,0,0,1-2.57,1.53l4.86,5.85h-2.34l-4.49-5.52h-1.53Zm5.09-9.81a2,2,0,0,0-.28-1.1,2.07,2.07,0,0,0-.76-.74,3.54,3.54,0,0,0-1.09-.42,6.19,6.19,0,0,0-1.31-.13h-1.65v5.17h1a7.54,7.54,0,0,0,1.62-.16,4.13,4.13,0,0,0,1.32-.51,2.59,2.59,0,0,0,.88-.86A2.39,2.39,0,0,0,725.84,133.86Z" transform="translate(0 -28.35)"/><path class="cls-11" d="M730.93,143.67V129.94h7.76v1.55h-5.86v4.7h5.61v1.54h-5.61v5.94Z" transform="translate(0 -28.35)"/></svg>